Coordinates
version=1
nRows=16
nColumns=40
inDegrees=yes

Units are S.I. units (second, meters, Newtons, ...)
If the header above contains a line with 'inDegrees', this indicates whether rotational values are in degrees (yes) or radians (no).

endheader
time	pelvis_tilt	pelvis_list	pelvis_rotation	pelvis_tx	pelvis_ty	pelvis_tz	hip_flexion_r	hip_adduction_r	hip_rotation_r	knee_angle_r	knee_angle_r_beta	ankle_angle_r	subtalar_angle_r	mtp_angle_r	hip_flexion_l	hip_adduction_l	hip_rotation_l	knee_angle_l	knee_angle_l_beta	ankle_angle_l	subtalar_angle_l	mtp_angle_l	lumbar_extension	lumbar_bending	lumbar_rotation	arm_flex_r	arm_add_r	arm_rot_r	elbow_flex_r	pro_sup_r	wrist_flex_r	wrist_dev_r	arm_flex_l	arm_add_l	arm_rot_l	elbow_flex_l	pro_sup_l	wrist_flex_l	wrist_dev_l
      2.81000000	      3.26781551	     -6.86095878	     -6.40538604	     -0.26696355	      0.96369396	     -1.00632971	     -0.66343162	     -4.80151920	     -2.10746085	     71.79153529	      1.25299867	    -20.09342321	      0.00000000	      0.00000000	     20.73021177	     -8.81593730	    -14.15873292	     56.49727125	      0.98606340	     16.77283974	      0.00000000	      0.00000000	    -11.88601413	     -0.58079275	     11.35123844	     89.67552028	    -20.87464313	     45.19022049	     34.34469423	     85.73170138	      0.00000000	      0.00000000	     89.79968110	    -23.02536630	     54.43307911	     47.51967492	     86.87010397	      0.00000000	      0.00000000
      2.81500000	      3.25550689	     -6.76920666	     -6.39210807	     -0.26709205	      0.96279910	     -1.00640042	     -0.72011500	     -4.96019398	     -2.19866850	     71.77177773	      1.25265383	    -20.13520106	      0.00000000	      0.00000000	     20.85806683	     -8.75444975	    -14.21183640	     56.70351178	      0.98966298	     16.85981376	      0.00000000	      0.00000000	    -11.90049901	     -0.69535086	     11.33912742	     89.68295596	    -20.89465710	     45.03048964	     34.37351904	     85.75933997	      0.00000000	      0.00000000	     89.80280186	    -22.91711192	     54.24818288	     47.45102467	     86.89420495	      0.00000000	      0.00000000
      2.82000000	      3.13171025	     -6.78673028	     -6.35110301	     -0.26741456	      0.96177397	     -1.00635261	     -0.64777446	     -4.94868664	     -2.29026682	     71.77904339	      1.25278064	    -20.15331470	      0.00000000	      0.00000000	     21.14949428	     -8.81623336	    -14.15626104	     56.96281244	      0.99418863	     16.94439278	      0.00000000	      0.00000000	    -11.82027504	     -0.66779837	     11.24782378	     89.69009614	    -20.78123692	     44.75409010	     34.34574380	     85.81093345	      0.00000000	      0.00000000	     89.80537724	    -22.97000585	     54.15802726	     47.52519182	     86.91782192	      0.00000000	      0.00000000
      2.82500000	      3.16252650	     -6.76360097	     -6.34512238	     -0.26754099	      0.96098964	     -1.00636977	     -0.75606113	     -5.01345677	     -2.32755735	     71.76308752	      1.25250216	    -20.10529612	      0.00000000	      0.00000000	     21.21744051	     -8.82868180	    -14.19765831	     57.16801589	      0.99777010	     17.03683062	      0.00000000	      0.00000000	    -11.89891250	     -0.71193636	     11.25482037	     89.69546446	    -20.78634068	     44.53876454	     34.43091048	     85.82935529	      0.00000000	      0.00000000	     89.80816043	    -22.92159692	     54.00535204	     47.53562310	     86.87563887	      0.00000000	      0.00000000
      2.83000000	      3.08294721	     -6.74759540	     -6.33743718	     -0.26771423	      0.95987388	     -1.00639489	     -0.72525878	     -5.06548770	     -2.37476292	     71.80083678	      1.25316101	    -20.05487243	      0.00000000	      0.00000000	     21.43707645	     -8.85332161	    -14.19811150	     57.41982294	      1.00216497	     17.18847499	      0.00000000	      0.00000000	    -11.83847860	     -0.73364092	     11.28683892	     89.70634428	    -20.87997722	     44.56697733	     34.55475692	     85.60444299	      0.00000000	      0.00000000	     89.81009135	    -22.77805566	     53.84630839	     47.42453636	     86.91352308	      0.00000000	      0.00000000
      2.83500000	      3.05167677	     -6.63938108	     -6.33133633	     -0.26794618	      0.95906976	     -1.00640553	     -0.73583964	     -5.24157888	     -2.46050642	     71.78626008	      1.25290660	    -20.14865903	      0.00000000	      0.00000000	     21.58787670	     -8.76551731	    -14.21730242	     57.59716622	      1.00526019	     17.17637894	      0.00000000	      0.00000000	    -11.85142155	     -0.86757822	     11.24378698	     89.70870514	    -20.76988157	     44.17249050	     34.49016444	     85.75694294	      0.00000000	      0.00000000	     89.81242774	    -22.78465354	     53.73402440	     47.48239292	     86.87444417	      0.00000000	      0.00000000
      2.84000000	      2.97123234	     -6.71281855	     -6.27498414	     -0.26817805	      0.95800688	     -1.00645995	     -0.75219754	     -5.18219478	     -2.56640235	     71.74805025	      1.25223971	    -20.11466131	      0.00000000	      0.00000000	     21.84354754	     -8.87240253	    -14.13204167	     57.88174099	      1.01022696	     17.27017810	      0.00000000	      0.00000000	    -11.81382517	     -0.76964801	     11.20398450	     89.71639891	    -20.71042922	     43.92777009	     34.44330220	     85.79415852	      0.00000000	      0.00000000	     89.81578624	    -22.71714401	     53.60667500	     47.41125084	     86.86958201	      0.00000000	      0.00000000
      2.84500000	      2.88336335	     -6.65773579	     -6.30008556	     -0.26841057	      0.95696901	     -1.00643135	     -0.68931725	     -5.25454752	     -2.52948243	     71.80644201	      1.25325884	    -20.12449062	      0.00000000	      0.00000000	     22.06780786	     -8.85872894	    -14.13554556	     58.11909386	      1.01436955	     17.37459852	      0.00000000	      0.00000000	    -11.76052867	     -0.83867972	     11.23809587	     89.72659523	    -20.75801133	     43.83756163	     34.56491246	     85.69648520	      0.00000000	      0.00000000	     89.81690039	    -22.65990259	     53.45134294	     47.43309266	     86.83571791	      0.00000000	      0.00000000
      2.85000000	      2.85540764	     -6.64374654	     -6.25748174	     -0.26882643	      0.95609275	     -1.00658598	     -0.69860125	     -5.32322141	     -2.63156003	     71.80627959	      1.25325600	    -20.28047052	      0.00000000	      0.00000000	     22.25244425	     -8.84626428	    -14.07627063	     58.35209444	      1.01843617	     17.46358014	      0.00000000	      0.00000000	    -11.80389126	     -0.85060918	     11.19490593	     89.72992731	    -20.72919009	     43.54966467	     34.59528378	     85.80785252	      0.00000000	      0.00000000	     89.82138728	    -22.61794967	     53.26287589	     47.43064858	     86.90943244	      0.00000000	      0.00000000
      2.85500000	      2.80803941	     -6.58376413	     -6.26215408	     -0.26904186	      0.95520130	     -1.00656387	     -0.69646019	     -5.41097119	     -2.65965763	     71.80807737	      1.25328738	    -20.28144218	      0.00000000	      0.00000000	     22.42947335	     -8.81144933	    -14.05349572	     58.56487937	      1.02214997	     17.53175602	      0.00000000	      0.00000000	    -11.79011705	     -0.92782482	     11.19497012	     89.73421899	    -20.71723817	     43.38606207	     34.64441681	     85.81729294	      0.00000000	      0.00000000	     89.82354151	    -22.56780808	     53.17217847	     47.42023879	     86.90168625	      0.00000000	      0.00000000
      2.86000000	      2.66111156	     -6.61890736	     -6.26688744	     -0.26925469	      0.95417849	     -1.00644266	     -0.61464895	     -5.35990759	     -2.66713269	     71.77318457	      1.25267839	    -20.26814824	      0.00000000	      0.00000000	     22.71364779	     -8.90312333	    -14.02471570	     58.80209057	      1.02629009	     17.64035038	      0.00000000	      0.00000000	    -11.66931868	     -0.91484165	     11.31833300	     89.73843716	    -20.94034341	     43.55296060	     34.83378366	     85.37391749	      0.00000000	      0.00000000	     89.82479476	    -22.33535855	     53.00770713	     47.28558270	     86.94652114	      0.00000000	      0.00000000
      2.86500000	      2.67271111	     -6.60426472	     -6.28466748	     -0.26944689	      0.95329048	     -1.00633192	     -0.68363124	     -5.41060322	     -2.68688287	     71.78112920	      1.25281705	    -20.24493644	      0.00000000	      0.00000000	     22.81850108	     -8.94281484	    -14.06497580	     59.04413610	      1.03051458	     17.76573265	      0.00000000	      0.00000000	    -11.72810642	     -0.94329096	     11.27247308	     89.74194830	    -20.74340972	     43.06062723	     34.71295836	     85.68205069	      0.00000000	      0.00000000	     89.82685904	    -22.41738275	     52.90178019	     47.38010652	     86.88522133	      0.00000000	      0.00000000
      2.87000000	      2.68451631	     -6.58161101	     -6.26536650	     -0.26969104	      0.95252632	     -1.00634337	     -0.75861333	     -5.47783598	     -2.72854015	     71.74999544	      1.25227366	    -20.20857287	      0.00000000	      0.00000000	     22.92301898	     -8.93143366	    -14.04065131	     59.24157931	      1.03396061	     17.84300868	      0.00000000	      0.00000000	    -11.79779453	     -0.97995777	     11.23299885	     89.74676427	    -20.65878296	     42.80708205	     34.67412392	     85.80746516	      0.00000000	      0.00000000	     89.82863767	    -22.42785460	     52.73382190	     47.43525821	     86.88699806	      0.00000000	      0.00000000
      2.87500000	      2.59436356	     -6.52140091	     -6.26075768	     -0.26993438	      0.95159694	     -1.00634649	     -0.71927633	     -5.56844093	     -2.76895952	     71.74422966	      1.25217303	    -20.15736724	      0.00000000	      0.00000000	     23.14260515	     -8.88325478	    -14.00269000	     59.43453379	      1.03732830	     17.97209318	      0.00000000	      0.00000000	    -11.73783579	     -1.04185937	     11.20225715	     89.75385755	    -20.63274810	     42.72340827	     34.69272918	     85.88234621	      0.00000000	      0.00000000	     89.82828975	    -22.42168247	     52.69551510	     47.42537889	     86.82434257	      0.00000000	      0.00000000
      2.88000000	      2.57168113	     -6.53597944	     -6.29041147	     -0.27007048	      0.95071840	     -1.00620245	     -0.74899927	     -5.58274798	     -2.77284451	     71.73747669	      1.25205517	    -20.24981989	      0.00000000	      0.00000000	     23.27497861	     -8.93966518	    -13.98680240	     59.65337792	      1.04114785	     18.05230956	      0.00000000	      0.00000000	    -11.76181814	     -1.04381475	     11.17821439	     89.75752493	    -20.51502179	     42.59671649	     34.69764183	     84.95016186	      0.00000000	      0.00000000	     89.82987352	    -22.51607072	     52.65626751	     47.56661731	     86.10754122	      0.00000000	      0.00000000
      2.88500000	      2.45146855	     -6.58110185	     -6.36852740	     -0.27040576	      0.94978645	     -1.00599530	     -0.64404392	     -5.50057565	     -2.67272353	     71.77991552	      1.25279586	    -20.18141890	      0.00000000	      0.00000000	     23.51018468	     -9.08021336	    -14.03819063	     59.87312477	      1.04498316	     18.09147989	      0.00000000	      0.00000000	    -11.68686493	     -1.02204836	     11.38201792	     89.75401762	    -20.64937231	     42.23040929	     34.76437136	     85.64938567	      0.00000000	      0.00000000	     89.83275384	    -22.29022010	     52.39225673	     47.36208388	     86.88191304	      0.00000000	      0.00000000
